# xmcd
# Track frame offsets:
# 150
# 13318
# 24676
# 37237
# 47128
# 57254
# 69570
# 79602
# 91689
# 105694
# 119407
# 130154
# 147366
# 162254
# 174611
# 184672
# 201332
# 214775
# 233509
# 250145
#
# Disc length: 3581 seconds
# Revision: 0
# Processed by: cddbd v1.5.2PL0 Copyright (c) Steve Scherf et al.
# Submitted via: VisiTrax 2.10.3.257 - For more info visit www.synapsa.com
#
DISCID=1d0dfb14
DTITLE=George Jones - 40 Years Of Duets
DYEAR=2007
DGENRE=Country
TTITLE0=w/- Janette Hicks - Yearning
TTITLE1=w/- Virginia Spurlock - Flame In My Heart
TTITLE2=w/- Margie Sinfleton - Waltz Of The Angels
TTITLE3=w/- Melba Montgomery - Rollin' In My Sweet Baby's Arms
TTITLE4=w/- Melba Montgomery - Let's Invite Them Over
TTITLE5=w/- Melba Montgomery - We Must Have Been Out Of Our Minds
TTITLE6=w/- Gene Pitney - I've Got Five Dollars And It's Saturday Night
TTITLE7=w/- Brenda Carter - Milwaukee Here I Come
TTITLE8=w/- Tammy Wynette - Golden Ring
TTITLE9=w/- Tammy Wynette - We're Gonna Hold On
TTITLE10=w/- Johnny Paycheck - Maybelline
TTITLE11=w/- James Taylor - Bartender's Blues
TTITLE12=w/- Merle Haggard - Yesterday's Wine
TTITLE13=w/- Tammy Wynette - Two Story House
TTITLE14=w/- Ray Charles and Chet Atkins - We Didn't See A Thing
TTITLE15=w/- Randy Travis - A Few Ole Country Boys
TTITLE16=w/- Lacy J. Dalton - Size Seven Round (Made Of Gold)
TTITLE17=w/- Patty Loveless - You Don't Seem To Miss me
TTITLE18=w/- Alan Jackson - A Good Year For The Roses
TTITLE19=w/- Tammy Wynette - One
EXTD=
EXTT0=
EXTT1=
EXTT2=
EXTT3=
EXTT4=
EXTT5=
EXTT6=
EXTT7=
EXTT8=
EXTT9=
EXTT10=
EXTT11=
EXTT12=
EXTT13=
EXTT14=
EXTT15=
EXTT16=
EXTT17=
EXTT18=
EXTT19=
PLAYORDER=
